STARTFONT 2.1
FONT -Bitstream-Terminal-Medium-R-Double Wide--25-180-100-100-C-300-DEC-DECtech
SIZE 18 100 100
FONTBOUNDINGBOX 30 25 0 -5

STARTPROPERTIES 27
FOUNDRY "Bitstream"
FAMILY_NAME "Terminal"
WEIGHT_NAME "Medium"
SLANT "R"
SETWIDTH_NAME "Double Wide"
ADD_STYLE_NAME ""
PIXEL_SIZE 25
POINT_SIZE 180
RESOLUTION_X 100
RESOLUTION_Y 100
SPACING "C"
AVERAGE_WIDTH 300
CHARSET_REGISTRY "DEC"
CHARSET_ENCODING "DECtech"
CAP_HEIGHT 15
COPYRIGHT "Copyright (c) 1991 Digital Equipment Corporation. All Rights Reserved."
_DEC_PRODUCTINFO "DECterm Fonts V2.2, 11-Nov-1991"
AVG_CAPITAL_WIDTH 300
AVG_LOWERCASE_WIDTH 300
FIGURE_WIDTH 300
FULL_NAME "Terminal Double Wide"
WEIGHT 10
X_HEIGHT -3
QUAD_WIDTH 30
DEFAULT_CHAR 159
FONT_DESCENT 5
FONT_ASCENT 20
ENDPROPERTIES

CHARS 182

STARTCHAR space
ENCODING 32
SWIDTH 1131 0
DWIDTH 30 0
BBX 30 25 0 -5
BITMAP
00000000
00000000
00000000
00000000
00000000
00000000
00000000
00000000
00000000
00000000
00000000
00000000
00000000
00000000
00000000
00000000
00000000
00000000
00000000
00000000
00000000
00000000
00000000
00000000
00000000
ENDCHAR

STARTCHAR exclam
ENCODING 33
SWIDTH 1131 0
DWIDTH 30 0
BBX 30 25 0 -5
BITMAP
00000000
00000000
00000000
00000000
00000000
000F8000
000F8000
000F8000
000F8000
000F8000
000F8000
000F8000
000F8000
000F8000
00000000
00000000
000F8000
001FC000
001FC000
000F8000
00000000
00000000
00000000
00000000
00000000
ENDCHAR

STARTCHAR quotedbl
ENCODING 34
SWIDTH 1131 0
DWIDTH 30 0
BBX 30 25 0 -5
BITMAP
00000000
00000000
00000000
01F03E00
01F03E00
01F03E00
01F03E00
01F03E00
01F03E00
01F03E00
01F03E00
00000000
00000000
00000000
00000000
00000000
00000000
00000000
00000000
00000000
00000000
00000000
00000000
00000000
00000000
ENDCHAR

STARTCHAR numbersign
ENCODING 35
SWIDTH 1131 0
DWIDTH 30 0
BBX 30 25 0 -5
BITMAP
00000000
00000000
00000000
00000000
00000000
01F03E00
01F03E00
01F03E00
01F03E00
01F03E00
01F03E00
7FFFFFF8
01F03E00
01F03E00
01F03E00
01F03E00
7FFFFFF8
01F03E00
01F03E00
01F03E00
01F03E00
01F03E00
01F03E00
00000000
00000000
ENDCHAR

STARTCHAR dollar
ENCODING 36
SWIDTH 1131 0
DWIDTH 30 0
BBX 30 25 0 -5
BITMAP
00000000
00000000
00000000
00078000
00078000
00078000
00FFDF00
03E07F00
07C03F00
07C01F00
07E00000
03FC0000
00FFFC00
0003FF00
00001F00
00000F80
07C00F80
07E00F00
07F01F00
07DFFC00
00078000
00078000
00078000
00078000
00000000
ENDCHAR

STARTCHAR percent
ENCODING 37
SWIDTH 1131 0
DWIDTH 30 0
BBX 30 25 0 -5
BITMAP
00000000
00000000
00000000
00000000
00000000
07F80000
0E1C0000
3C0F0000
3C0F01C0
3C0F0FC0
0E1C3E00
07F8F000
00078000
003C7F80
03F0E1C0
3FC3C0F0
3C03C0F0
0003C0F0
0000E1C0
00007F80
00000000
00000000
00000000
00000000
00000000
ENDCHAR

STARTCHAR ampersand
ENCODING 38
SWIDTH 1131 0
DWIDTH 30 0
BBX 30 25 0 -5
BITMAP
00000000
00000000
00000000
00000000
00000000
003FDE00
00F83E00
00F03E00
00F00000
00F00000
00380000
003C0000
01FF3F80
01EF9E00
03E7DC00
03E3FC00
03E0F000
03E07C00
01F0FE00
00FF9F80
00000000
00000000
00000000
00000000
00000000
ENDCHAR

STARTCHAR quoteright
ENCODING 39
SWIDTH 1131 0
DWIDTH 30 0
BBX 30 25 0 -5
BITMAP
00000000
00000000
000FE000
000FC000
000F8000
001F8000
001F0000
003C0000
00380000
00000000
00000000
00000000
00000000
00000000
00000000
00000000
00000000
00000000
00000000
00000000
00000000
00000000
00000000
00000000
00000000
ENDCHAR

STARTCHAR parenleft
ENCODING 40
SWIDTH 1131 0
DWIDTH 30 0
BBX 30 25 0 -5
BITMAP
00000000
00000000
00000000
00003000
00007000
0000E000
0003C000
0007C000
00078000
000F8000
000F0000
001F0000
001F0000
001F0000
001F0000
001F0000
000F0000
000F8000
00078000
0007C000
0003C000
0000E000
00007000
00003000
00000000
ENDCHAR

STARTCHAR parenright
ENCODING 41
SWIDTH 1131 0
DWIDTH 30 0
BBX 30 25 0 -5
BITMAP
00000000
00000000
00000000
00300000
00380000
001C0000
000F0000
000F8000
00078000
0007C000
0003C000
0003E000
0003E000
0003E000
0003E000
0003E000
0003C000
0007C000
00078000
000F8000
000F0000
001C0000
00380000
00300000
00000000
ENDCHAR

STARTCHAR asterisk
ENCODING 42
SWIDTH 1131 0
DWIDTH 30 0
BBX 30 25 0 -5
BITMAP
00000000
00000000
00000000
00000000
00000000
00000000
00000000
00078000
00078000
07C78F80
07E79F80
01FFFE00
003FF000
001FE000
001FE000
00F87C00
00F03C00
00F03C00
00000000
00000000
00000000
00000000
00000000
00000000
00000000
ENDCHAR

STARTCHAR plus
ENCODING 43
SWIDTH 1131 0
DWIDTH 30 0
BBX 30 25 0 -5
BITMAP
00000000
00000000
00000000
00000000
00000000
00000000
000F8000
000F8000
000F8000
000F8000
000F8000
000F8000
0FFFFF80
0FFFFF80
000F8000
000F8000
000F8000
000F8000
000F8000
000F8000
00000000
00000000
00000000
00000000
00000000
ENDCHAR

STARTCHAR comma
ENCODING 44
SWIDTH 1131 0
DWIDTH 30 0
BBX 30 25 0 -5
BITMAP
00000000
00000000
00000000
00000000
00000000
00000000
00000000
00000000
00000000
00000000
00000000
00000000
00000000
00000000
00000000
00000000
000FE000
000FC000
001FC000
001F8000
001F0000
003F0000
003C0000
00380000
00000000
ENDCHAR

STARTCHAR minus
ENCODING 45
SWIDTH 1131 0
DWIDTH 30 0
BBX 30 25 0 -5
BITMAP
00000000
00000000
00000000
00000000
00000000
00000000
00000000
00000000
00000000
00000000
00000000
00000000
0FFFFFC0
0FFFFFC0
00000000
00000000
00000000
00000000
00000000
00000000
00000000
00000000
00000000
00000000
00000000
ENDCHAR

STARTCHAR period
ENCODING 46
SWIDTH 1131 0
DWIDTH 30 0
BBX 30 25 0 -5
BITMAP
00000000
00000000
00000000
00000000
00000000
00000000
00000000
00000000
00000000
00000000
00000000
00000000
00000000
00000000
00000000
00000000
001FC000
003FE000
003FE000
001FC000
00000000
00000000
00000000
00000000
00000000
ENDCHAR

STARTCHAR slash
ENCODING 47
SWIDTH 1131 0
DWIDTH 30 0
BBX 30 25 0 -5
BITMAP
00000000
00000000
00000000
000001C0
000003C0
00000F80
00001F00
00001E00
00003C00
00007000
0000F000
0003E000
0003C000
00078000
000F0000
001C0000
003C0000
00F80000
00F00000
01E00000
03E00000
07C00000
0F000000
00000000
00000000
ENDCHAR

STARTCHAR zero
ENCODING 48
SWIDTH 1131 0
DWIDTH 30 0
BBX 30 25 0 -5
BITMAP
00000000
00000000
00000000
00000000
00000000
001FE000
00F87C00
01F03E00
03E01F00
03E01F00
07C00F80
07C00F80
07C00F80
07C00F80
07C00F80
03E01F00
03E01F00
01F03E00
00F87C00
001FE000
00000000
00000000
00000000
00000000
00000000
ENDCHAR

STARTCHAR one
ENCODING 49
SWIDTH 1131 0
DWIDTH 30 0
BBX 30 25 0 -5
BITMAP
00000000
00000000
00000000
00000000
00000000
000FC000
03FFC000
0007C000
0007C000
0007C000
0007C000
0007C000
0007C000
0007C000
0007C000
0007C000
0007C000
0007C000
0007C000
07FFFF80
00000000
00000000
00000000
00000000
00000000
ENDCHAR

STARTCHAR two
ENCODING 50
SWIDTH 1131 0
DWIDTH 30 0
BBX 30 25 0 -5
BITMAP
00000000
00000000
00000000
00000000
00000000
01FFF000
07E03E00
07C01F00
00001F00
00001F00
00001F00
00003E00
00007C00
0003E000
000F8000
001F0000
00F80000
03E00F80
07C00F80
07FFFF80
00000000
00000000
00000000
00000000
00000000
ENDCHAR

STARTCHAR three
ENCODING 51
SWIDTH 1131 0
DWIDTH 30 0
BBX 30 25 0 -5
BITMAP
00000000
00000000
00000000
00000000
00000000
00FFFC00
03F01F00
03F00F80
00000F80
00000F80
00000F80
00001F00
001FFC00
00001F00
00000F80
00000F80
00000F80
03F00F80
03F01F00
00FFFC00
00000000
00000000
00000000
00000000
00000000
ENDCHAR

STARTCHAR four
ENCODING 52
SWIDTH 1131 0
DWIDTH 30 0
BBX 30 25 0 -5
BITMAP
00000000
00000000
00000000
00000000
00000000
0007F000
000FF000
0018F000
0030F000
00E0F000
01C0F000
0300F000
0600F000
0C00F000
0FFFFF80
0FFFFF80
0000F000
0000F000
0000F000
001FFF80
00000000
00000000
00000000
00000000
00000000
ENDCHAR

STARTCHAR five
ENCODING 53
SWIDTH 1131 0
DWIDTH 30 0
BBX 30 25 0 -5
BITMAP
00000000
00000000
00000000
00000000
00000000
03FFFE00
03E00000
03E00000
03E00000
03E00000
03E00000
03FFFC00
03E03F00
00001F80
00001F80
00001F80
00001F80
07F01F00
07F03E00
01FFF000
00000000
00000000
00000000
00000000
00000000
ENDCHAR

STARTCHAR six
ENCODING 54
SWIDTH 1131 0
DWIDTH 30 0
BBX 30 25 0 -5
BITMAP
00000000
00000000
00000000
00000000
00000000
0003FE00
000F0000
00380000
00F00000
01F00000
01E00000
03E7FC00
03F81F00
03F00F00
03E00F80
03E00F80
03E00F80
01F00F00
01F81F00
003FFC00
00000000
00000000
00000000
00000000
00000000
ENDCHAR

STARTCHAR seven
ENCODING 55
SWIDTH 1131 0
DWIDTH 30 0
BBX 30 25 0 -5
BITMAP
00000000
00000000
00000000
00000000
00000000
03FFFFC0
03E00FC0
03E00F80
00001F00
00001F00
00003E00
00003E00
00007C00
0000FC00
0000F000
0003E000
0007E000
0007C000
000FC000
001F8000
00000000
00000000
00000000
00000000
00000000
ENDCHAR

STARTCHAR eight
ENCODING 56
SWIDTH 1131 0
DWIDTH 30 0
BBX 30 25 0 -5
BITMAP
00000000
00000000
00000000
00000000
00000000
003FF000
01F03E00
03E01F00
03E01F00
03E01F00
03E01F00
01F03E00
003FF000
01F03E00
03E01F00
03E01F00
03E01F00
03E01F00
01F03E00
003FF000
00000000
00000000
00000000
00000000
00000000
ENDCHAR

STARTCHAR nine
ENCODING 57
SWIDTH 1131 0
DWIDTH 30 0
BBX 30 25 0 -5
BITMAP
00000000
00000000
00000000
00000000
00000000
003FF000
01F03E00
03E01E00
03E01F00
03E01F00
03E01F00
03E01F00
01F07F00
003F9F00
00001F00
00003E00
00003E00
00007C00
0003E000
01FF8000
00000000
00000000
00000000
00000000
00000000
ENDCHAR

STARTCHAR colon
ENCODING 58
SWIDTH 1131 0
DWIDTH 30 0
BBX 30 25 0 -5
BITMAP
00000000
00000000
00000000
00000000
00000000
00000000
00000000
00000000
001FE000
003FF000
003FF000
001FE000
00000000
00000000
00000000
00000000
001FE000
003FF000
003FF000
001FE000
00000000
00000000
00000000
00000000
00000000
ENDCHAR

STARTCHAR semicolon
ENCODING 59
SWIDTH 1131 0
DWIDTH 30 0
BBX 30 25 0 -5
BITMAP
00000000
00000000
00000000
00000000
00000000
00000000
00000000
00000000
001FE000
003FF000
003FF000
001FE000
00000000
00000000
00000000
00000000
001FC000
001F8000
003F8000
003F0000
003C0000
00FC0000
00F80000
00F00000
00000000
ENDCHAR

STARTCHAR less
ENCODING 60
SWIDTH 1131 0
DWIDTH 30 0
BBX 30 25 0 -5
BITMAP
00000000
00000000
00000000
00000000
00000000
00000000
00000000
000001F0
00007FF0
0007FE00
00FFC000
03F80000
0F000000
03F80000
00FFC000
0007FE00
00007FF0
000003F0
00000000
00000000
00000000
00000000
00000000
00000000
00000000
ENDCHAR

STARTCHAR equal
ENCODING 61
SWIDTH 1131 0
DWIDTH 30 0
BBX 30 25 0 -5
BITMAP
00000000
00000000
00000000
00000000
00000000
00000000
00000000
00000000
00000000
0FFFFFC0
0FFFFFC0
00000000
00000000
00000000
00000000
0FFFFFC0
0FFFFFC0
00000000
00000000
00000000
00000000
00000000
00000000
00000000
00000000
ENDCHAR

STARTCHAR greater
ENCODING 62
SWIDTH 1131 0
DWIDTH 30 0
BBX 30 25 0 -5
BITMAP
00000000
00000000
00000000
00000000
00000000
00000000
00000000
3E000000
3FF80000
01FF8000
000FFC00
00007F00
000003C0
00007F00
000FFC00
01FF8000
3FF80000
3F000000
00000000
00000000
00000000
00000000
00000000
00000000
00000000
ENDCHAR

STARTCHAR question
ENCODING 63
SWIDTH 1131 0
DWIDTH 30 0
BBX 30 25 0 -5
BITMAP
00000000
00000000
00000000
00000000
00000000
03FFFF00
0FC01F80
0FC00FC0
00000FC0
00001F80
00007F00
0007F000
001F8000
001F0000
00000000
00000000
003F0000
00FF8000
00FF8000
003F0000
00000000
00000000
00000000
00000000
00000000
ENDCHAR

STARTCHAR at
ENCODING 64
SWIDTH 1131 0
DWIDTH 30 0
BBX 30 25 0 -5
BITMAP
00000000
00000000
00000000
00FFF000
03FFFE00
0F001F00
0F000F80
3E000380
3E0003C0
7C07FFC0
7C1F83C0
7C1F03C0
7C3F03C0
7C3F03C0
7C1F03C0
7C1F83C0
3E07FFF8
3E000000
0F000000
0F000000
03E01F80
00FFFF80
00000000
00000000
00000000
ENDCHAR

STARTCHAR A
ENCODING 65
SWIDTH 1131 0
DWIDTH 30 0
BBX 30 25 0 -5
BITMAP
00000000
00000000
00000000
00000000
00000000
0007C000
000FE000
000FF000
001CF000
00387C00
00383E00
00F03E00
01E01F00
03E01F80
03C00F80
07FFFFC0
07000FC0
0E0003F0
3E0003F0
FFF01FFC
00000000
00000000
00000000
00000000
00000000
ENDCHAR

STARTCHAR B
ENCODING 66
SWIDTH 1131 0
DWIDTH 30 0
BBX 30 25 0 -5
BITMAP
00000000
00000000
00000000
00000000
00000000
3FFFFE00
03E01F00
03E00F80
03E00F80
03E00F80
03E00F00
03E01E00
03FFFF80
03E00FC0
03E001F0
03E001F0
03E001F0
03E003F0
03E01FC0
3FFFFF00
00000000
00000000
00000000
00000000
00000000
ENDCHAR

STARTCHAR C
ENCODING 67
SWIDTH 1131 0
DWIDTH 30 0
BBX 30 25 0 -5
BITMAP
00000000
00000000
00000000
00000000
00000000
003FF0F0
03F03EF0
07C00FF0
0FC001F0
0F0000F0
3E0000F0
3E000000
3E000000
3E000000
3E000000
0F000000
0FC00000
07C003F0
03F00FC0
003FFF00
00000000
00000000
00000000
00000000
00000000
ENDCHAR

STARTCHAR D
ENCODING 68
SWIDTH 1131 0
DWIDTH 30 0
BBX 30 25 0 -5
BITMAP
00000000
00000000
00000000
00000000
00000000
3FFFFC00
03E01F00
03E003C0
03E003C0
03E001F0
03E001F0
03E001F0
03E001F0
03E001F0
03E001F0
03E001F0
03E003C0
03E003C0
03E01F00
3FFFFC00
00000000
00000000
00000000
00000000
00000000
ENDCHAR

STARTCHAR E
ENCODING 69
SWIDTH 1131 0
DWIDTH 30 0
BBX 30 25 0 -5
BITMAP
00000000
00000000
00000000
00000000
00000000
7FFFFFC0
01F000C0
01F000C0
01F000C0
01F03000
01F03000
01F03000
01FFF000
01F03000
01F03000
01F000C0
01F000C0
01F000C0
01F000C0
7FFFFFC0
00000000
00000000
00000000
00000000
00000000
ENDCHAR

STARTCHAR F
ENCODING 70
SWIDTH 1131 0
DWIDTH 30 0
BBX 30 25 0 -5
BITMAP
00000000
00000000
00000000
00000000
00000000
3FFFFFF0
00F80070
00F80070
00F80070
00F81C00
00F81C00
00F81C00
00FFFC00
00F81C00
00F81C00
00F80000
00F80000
00F80000
00F80000
3FFFE000
00000000
00000000
00000000
00000000
00000000
ENDCHAR

STARTCHAR G
ENCODING 71
SWIDTH 1131 0
DWIDTH 30 0
BBX 30 25 0 -5
BITMAP
00000000
00000000
00000000
00000000
00000000
00FFE380
03E07F80
0F000F80
0F000380
3E000380
3E000380
3E000000
3E000000
3E000000
3E00FFF8
3F000F80
0F000F80
0FC00F80
03F01F80
00FFFE00
00000000
00000000
00000000
00000000
00000000
ENDCHAR

STARTCHAR H
ENCODING 72
SWIDTH 1131 0
DWIDTH 30 0
BBX 30 25 0 -5
BITMAP
00000000
00000000
00000000
00000000
00000000
7FF87FF8
07C00F80
07C00F80
07C00F80
07C00F80
07C00F80
07C00F80
07FFFF80
07C00F80
07C00F80
07C00F80
07C00F80
07C00F80
07C00F80
7FF87FF8
00000000
00000000
00000000
00000000
00000000
ENDCHAR

STARTCHAR I
ENCODING 73
SWIDTH 1131 0
DWIDTH 30 0
BBX 30 25 0 -5
BITMAP
00000000
00000000
00000000
00000000
00000000
07FFFF00
000F8000
000F8000
000F8000
000F8000
000F8000
000F8000
000F8000
000F8000
000F8000
000F8000
000F8000
000F8000
000F8000
07FFFF00
00000000
00000000
00000000
00000000
00000000
ENDCHAR

STARTCHAR J
ENCODING 74
SWIDTH 1131 0
DWIDTH 30 0
BBX 30 25 0 -5
BITMAP
00000000
00000000
00000000
00000000
00000000
00FFFFF0
00007C00
00007C00
00007C00
00007C00
00007C00
00007C00
00007C00
0C007C00
0C007C00
0C007C00
0C007C00
0E007000
0F00F000
03FFC000
00000000
00000000
00000000
00000000
00000000
ENDCHAR

STARTCHAR K
ENCODING 75
SWIDTH 1131 0
DWIDTH 30 0
BBX 30 25 0 -5
BITMAP
00000000
00000000
00000000
00000000
00000000
3FFC7FF0
03E01F80
03E01E00
03E07C00
03E0E000
03E38000
03EF8000
03FFC000
03E7E000
03E0F000
03E07C00
03E07E00
03E03F00
03E01F80
3FFC1FF0
00000000
00000000
00000000
00000000
00000000
ENDCHAR

STARTCHAR L
ENCODING 76
SWIDTH 1131 0
DWIDTH 30 0
BBX 30 25 0 -5
BITMAP
00000000
00000000
00000000
00000000
00000000
3FFFE000
00F80000
00F80000
00F80000
00F80000
00F80000
00F80000
00F80000
00F80000
00F80000
00F80070
00F80070
00F80070
00F80070
3FFFFFF0
00000000
00000000
00000000
00000000
00000000
ENDCHAR

STARTCHAR M
ENCODING 77
SWIDTH 1131 0
DWIDTH 30 0
BBX 30 25 0 -5
BITMAP
00000000
00000000
00000000
00000000
00000000
FFC00FFC
3FC00FF0
3FE01FF0
3EE01DF0
3E3031F0
3E3031F0
3E1861F0
3E1861F0
3E0CC1F0
3E0FC1F0
3E0781F0
3E0781F0
3E0001F0
3E0001F0
FFE01FFC
00000000
00000000
00000000
00000000
00000000
ENDCHAR

STARTCHAR N
ENCODING 78
SWIDTH 1131 0
DWIDTH 30 0
BBX 30 25 0 -5
BITMAP
00000000
00000000
00000000
00000000
00000000
7FE07FF8
07F00F80
07F00F80
07D80F80
07CC0F80
07C70F80
07C70F80
07C38F80
07C0CF80
07C0CF80
07C06F80
07C03F80
07C01F80
07C01F80
7FFC0F80
00000000
00000000
00000000
00000000
00000000
ENDCHAR

STARTCHAR O
ENCODING 79
SWIDTH 1131 0
DWIDTH 30 0
BBX 30 25 0 -5
BITMAP
00000000
00000000
00000000
00000000
00000000
00FFFC00
03E01F00
0F0003C0
0F0003C0
3E0001F0
3E0001F0
3E0001F0
3E0001F0
3E0001F0
3E0001F0
3E0001F0
0F0003C0
0F0003C0
03E01F00
00FFFC00
00000000
00000000
00000000
00000000
00000000
ENDCHAR

STARTCHAR P
ENCODING 80
SWIDTH 1131 0
DWIDTH 30 0
BBX 30 25 0 -5
BITMAP
00000000
00000000
00000000
00000000
00000000
3FFFFF80
00F803C0
00F801F0
00F801F0
00F801F0
00F801F0
00F801F0
00F803C0
00FFFF80
00F80000
00F80000
00F80000
00F80000
00F80000
3FFFF000
00000000
00000000
00000000
00000000
00000000
ENDCHAR

STARTCHAR Q
ENCODING 81
SWIDTH 1131 0
DWIDTH 30 0
BBX 30 25 0 -5
BITMAP
00000000
00000000
00000000
00000000
00000000
00FFF000
03E03E00
0F000F80
0F000F80
3E0003C0
3E0003C0
3E0003C0
3E0003C0
3E0003C0
3E0003C0
3E0003C0
0F000F80
0F000F80
03E03E00
00FFF000
003C0000
00300000
003FC038
01FFFFF8
01F07FF0
ENDCHAR

STARTCHAR R
ENCODING 82
SWIDTH 1131 0
DWIDTH 30 0
BBX 30 25 0 -5
BITMAP
00000000
00000000
00000000
00000000
00000000
7FFFFE00
07C01F80
07C003C0
07C003C0
07C003C0
07C00F80
07C03F00
07FFFC00
07C07E00
07C03E00
07C01F00
07C01F80
07C00F80
07C00FC0
7FF003F8
00000000
00000000
00000000
00000000
00000000
ENDCHAR

STARTCHAR S
ENCODING 83
SWIDTH 1131 0
DWIDTH 30 0
BBX 30 25 0 -5
BITMAP
00000000
00000000
00000000
00000000
00000000
00FFEF80
03F03F80
07E01F80
07C00F80
07C00000
07E00000
03FFC000
00FFFE00
0000FF80
00000FC0
07C003C0
07C003C0
07E00FC0
07F03F80
073FFE00
00000000
00000000
00000000
00000000
00000000
ENDCHAR

STARTCHAR T
ENCODING 84
SWIDTH 1131 0
DWIDTH 30 0
BBX 30 25 0 -5
BITMAP
00000000
00000000
00000000
00000000
00000000
7FFFFFF0
780F80F0
780F80F0
780F80F0
780F80F0
000F8000
000F8000
000F8000
000F8000
000F8000
000F8000
000F8000
000F8000
000F8000
01FFFC00
00000000
00000000
00000000
00000000
00000000
ENDCHAR

STARTCHAR U
ENCODING 85
SWIDTH 1131 0
DWIDTH 30 0
BBX 30 25 0 -5
BITMAP
00000000
00000000
00000000
00000000
00000000
7FF87FF8
07C00F80
07C00F80
07C00F80
07C00F80
07C00F80
07C00F80
07C00F80
07C00F80
07C00F80
07C00F80
07C00F80
07C00F80
03E01F00
00FFFE00
00000000
00000000
00000000
00000000
00000000
ENDCHAR

STARTCHAR V
ENCODING 86
SWIDTH 1131 0
DWIDTH 30 0
BBX 30 25 0 -5
BITMAP
00000000
00000000
00000000
00000000
00000000
FFE01FFC
3F0000F0
0F0001C0
0FC001C0
07C00380
03E00F00
01E00F00
01F01E00
00F83C00
00383C00
003C7000
001F6000
000FE000
000FC000
00078000
00000000
00000000
00000000
00000000
00000000
ENDCHAR

STARTCHAR W
ENCODING 87
SWIDTH 1131 0
DWIDTH 30 0
BBX 30 25 0 -5
BITMAP
00000000
00000000
00000000
00000000
00000000
FFF03FFC
0F0001F0
0F0001F0
0F0001F0
0F0381F0
0F0381F0
0F07C1F0
070FC1C0
070CE1C0
071C71C0
073871C0
07303DC0
03E01F80
03E01F80
03C00F80
00000000
00000000
00000000
00000000
00000000
ENDCHAR

STARTCHAR X
ENCODING 88
SWIDTH 1131 0
DWIDTH 30 0
BBX 30 25 0 -5
BITMAP
00000000
00000000
00000000
00000000
00000000
7FFC3FF0
07F00F00
01F81E00
00FC3C00
003F7000
001FE000
000FC000
000FE000
001FF000
003CFC00
00F87E00
01F03F00
03E01F80
07C00FC0
7FF01FF8
00000000
00000000
00000000
00000000
00000000
ENDCHAR

STARTCHAR Y
ENCODING 89
SWIDTH 1131 0
DWIDTH 30 0
BBX 30 25 0 -5
BITMAP
00000000
00000000
00000000
00000000
00000000
FFF03FF0
0FC00F80
07E00F00
03F01E00
01F83C00
00FC7000
003FE000
001FC000
000F8000
000F8000
000F8000
000F8000
000F8000
000F8000
01FFFC00
00000000
00000000
00000000
00000000
00000000
ENDCHAR

STARTCHAR Z
ENCODING 90
SWIDTH 1131 0
DWIDTH 30 0
BBX 30 25 0 -5
BITMAP
00000000
00000000
00000000
00000000
00000000
07FFFF80
06001F80
06003F00
06007E00
0000FC00
0003F000
0007E000
000FC000
001F8000
003F0000
00FC0000
01F800C0
03F000C0
07E000C0
07FFFFC0
00000000
00000000
00000000
00000000
00000000
ENDCHAR

STARTCHAR bracketleft
ENCODING 91
SWIDTH 1131 0
DWIDTH 30 0
BBX 30 25 0 -5
BITMAP
00000000
00000000
00000000
003FF000
003C0000
003C0000
003C0000
003C0000
003C0000
003C0000
003C0000
003C0000
003C0000
003C0000
003C0000
003C0000
003C0000
003C0000
003C0000
003C0000
003C0000
003C0000
003FF000
00000000
00000000
ENDCHAR

STARTCHAR backslash
ENCODING 92
SWIDTH 1131 0
DWIDTH 30 0
BBX 30 25 0 -5
BITMAP
00000000
00000000
00000000
0E000000
0F000000
07C00000
03E00000
01E00000
00F00000
00380000
003C0000
001F0000
000F0000
00078000
0003C000
0000E000
0000F000
00007C00
00003C00
00001E00
00001F00
00000F80
000003C0
00000000
00000000
ENDCHAR

STARTCHAR bracketright
ENCODING 93
SWIDTH 1131 0
DWIDTH 30 0
BBX 30 25 0 -5
BITMAP
00000000
00000000
00000000
003FF000
0000F000
0000F000
0000F000
0000F000
0000F000
0000F000
0000F000
0000F000
0000F000
0000F000
0000F000
0000F000
0000F000
0000F000
0000F000
0000F000
0000F000
0000F000
003FF000
00000000
00000000
ENDCHAR

STARTCHAR asciicircum
ENCODING 94
SWIDTH 1131 0
DWIDTH 30 0
BBX 30 25 0 -5
BITMAP
00000000
00000000
00000000
00000000
00000000
00000000
00000000
00000000
00000000
0007C000
001FF000
003FFC00
00F83E00
03E00F80
03C00380
00000000
00000000
00000000
00000000
00000000
00000000
00000000
00000000
00000000
00000000
ENDCHAR

STARTCHAR ldblank
ENCODING 95
SWIDTH 1131 0
DWIDTH 30 0
BBX 30 25 0 -5
BITMAP
00000000
00000000
00000000
00000000
00000000
00000000
00000000
00000000
00000000
00000000
00000000
00000000
00000000
00000000
00000000
00000000
00000000
00000000
00000000
00000000
00000000
00000000
00000000
00000000
00000000
ENDCHAR

STARTCHAR diamond
ENCODING 96
SWIDTH 1131 0
DWIDTH 30 0
BBX 30 25 0 -5
BITMAP
00000000
00000000
00000000
00000000
00070000
000F8000
001FC000
003FE000
00FFF000
01FFFC00
03FFFE00
07FFFF00
0FFFFF80
07FFFF00
03FFFE00
01FFFC00
00FFF000
003FE000
001FC000
000F8000
00070000
00000000
00000000
00000000
00000000
ENDCHAR

STARTCHAR checkerboard
ENCODING 97
SWIDTH 1131 0
DWIDTH 30 0
BBX 30 25 0 -5
BITMAP
AAAAAAA8
55555554
AAAAAAA8
55555554
AAAAAAA8
55555554
AAAAAAA8
55555554
AAAAAAA8
55555554
AAAAAAA8
55555554
AAAAAAA8
55555554
AAAAAAA8
55555554
AAAAAAA8
55555554
AAAAAAA8
55555554
AAAAAAA8
55555554
AAAAAAA8
55555554
AAAAAAA8
ENDCHAR

STARTCHAR HT
ENCODING 98
SWIDTH 1131 0
DWIDTH 30 0
BBX 30 25 0 -5
BITMAP
00000000
00000000
00000000
00000000
3E07C000
3E07C000
3E07C000
3E07C000
3FFFC000
3E07C000
3E07C000
3E07C000
3E07C000
00000000
00003FF8
00000380
00000380
00000380
00000380
00000380
00000380
00000380
00000000
00000000
00000000
ENDCHAR

STARTCHAR FF
ENCODING 99
SWIDTH 1131 0
DWIDTH 30 0
BBX 30 25 0 -5
BITMAP
00000000
00000000
00000000
00000000
3FFF0000
3E000000
3E000000
3E000000
3FF80000
3E000000
3E000000
3E000000
3E000000
0000FFF0
0000F000
0000F000
0000F000
0000FFC0
0000F000
0000F000
0000F000
0000F000
00000000
00000000
00000000
ENDCHAR

STARTCHAR CR
ENCODING 100
SWIDTH 1131 0
DWIDTH 30 0
BBX 30 25 0 -5
BITMAP
00000000
00000000
00000000
00000000
0FF80000
3E3F0000
7C1F0000
7C000000
7C000000
7C000000
7C1F0000
3E3F0000
0FF80000
00000000
0003FFC0
0003E0F0
0003E0F0
0003E0F0
0003FF80
0003E3C0
0003E1F0
0003E0F0
00000000
00000000
00000000
ENDCHAR

STARTCHAR LF
ENCODING 101
SWIDTH 1131 0
DWIDTH 30 0
BBX 30 25 0 -5
BITMAP
00000000
00000000
00000000
3E000000
3E000000
3E000000
3E000000
3E000000
3E000000
3E000000
3E000000
3FFF0000
00000000
0000FFF0
0000F000
0000F000
0000F000
0000FFC0
0000F000
0000F000
0000F000
00000000
00000000
00000000
00000000
ENDCHAR

STARTCHAR degree
ENCODING 102
SWIDTH 1131 0
DWIDTH 30 0
BBX 30 25 0 -5
BITMAP
00000000
00000000
003FF000
00F03C00
01E01E00
01E01E00
01E01E00
01E01E00
00F03C00
003FF000
00000000
00000000
00000000
00000000
00000000
00000000
00000000
00000000
00000000
00000000
00000000
00000000
00000000
00000000
00000000
ENDCHAR

STARTCHAR plusminus
ENCODING 103
SWIDTH 1131 0
DWIDTH 30 0
BBX 30 25 0 -5
BITMAP
00000000
00000000
00000000
00000000
00000000
000FC000
000FC000
000FC000
000FC000
000FC000
0FFFFFC0
0FFFFFC0
000FC000
000FC000
000FC000
000FC000
000FC000
00000000
0FFFFFC0
0FFFFFC0
00000000
00000000
00000000
00000000
00000000
ENDCHAR

STARTCHAR NL
ENCODING 104
SWIDTH 1131 0
DWIDTH 30 0
BBX 30 25 0 -5
BITMAP
00000000
00000000
00000000
00000000
3F0F8000
3F0F8000
3FCF8000
3EEF8000
3EEF8000
3E3F8000
3E1F8000
3E0F8000
3E0F8000
00000000
00003E00
00003E00
00003E00
00003E00
00003E00
00003E00
00003E00
00003FF8
00000000
00000000
00000000
ENDCHAR

STARTCHAR VT
ENCODING 105
SWIDTH 1131 0
DWIDTH 30 0
BBX 30 25 0 -5
BITMAP
00000000
00000000
00000000
00000000
7C07C000
7C07C000
7C07C000
3C078000
3E0F8000
0E0F0000
0F1F0000
03F80000
01F00000
00000000
00007FF8
00000F80
00000F80
00000F80
00000F80
00000F80
00000F80
00000F80
00000000
00000000
00000000
ENDCHAR

STARTCHAR ldcornsqlr
ENCODING 106
SWIDTH 1131 0
DWIDTH 30 0
BBX 30 25 0 -5
BITMAP
000F8000
000F8000
000F8000
000F8000
000F8000
000F8000
000F8000
000F8000
000F8000
000F8000
000F8000
000F8000
FFFF8000
FFFF8000
00000000
00000000
00000000
00000000
00000000
00000000
00000000
00000000
00000000
00000000
00000000
ENDCHAR

STARTCHAR ldcornsqur
ENCODING 107
SWIDTH 1131 0
DWIDTH 30 0
BBX 30 25 0 -5
BITMAP
00000000
00000000
00000000
00000000
00000000
00000000
00000000
00000000
00000000
00000000
00000000
00000000
FFFF8000
FFFF8000
000F8000
000F8000
000F8000
000F8000
000F8000
000F8000
000F8000
000F8000
000F8000
000F8000
000F8000
ENDCHAR

STARTCHAR ldcornsqul
ENCODING 108
SWIDTH 1131 0
DWIDTH 30 0
BBX 30 25 0 -5
BITMAP
00000000
00000000
00000000
00000000
00000000
00000000
00000000
00000000
00000000
00000000
00000000
00000000
000FFFFC
000FFFFC
000F8000
000F8000
000F8000
000F8000
000F8000
000F8000
000F8000
000F8000
000F8000
000F8000
000F8000
ENDCHAR

STARTCHAR ldcornsqll
ENCODING 109
SWIDTH 1131 0
DWIDTH 30 0
BBX 30 25 0 -5
BITMAP
000F8000
000F8000
000F8000
000F8000
000F8000
000F8000
000F8000
000F8000
000F8000
000F8000
000F8000
000F8000
000FFFFC
000FFFFC
00000000
00000000
00000000
00000000
00000000
00000000
00000000
00000000
00000000
00000000
00000000
ENDCHAR

STARTCHAR ldcross
ENCODING 110
SWIDTH 1131 0
DWIDTH 30 0
BBX 30 25 0 -5
BITMAP
000F8000
000F8000
000F8000
000F8000
000F8000
000F8000
000F8000
000F8000
000F8000
000F8000
000F8000
000F8000
FFFFFFFC
FFFFFFFC
000F8000
000F8000
000F8000
000F8000
000F8000
000F8000
000F8000
000F8000
000F8000
000F8000
000F8000
ENDCHAR

STARTCHAR ldscan1
ENCODING 111
SWIDTH 1131 0
DWIDTH 30 0
BBX 30 25 0 -5
BITMAP
00000000
00000000
FFFFFFFC
FFFFFFFC
00000000
00000000
00000000
00000000
00000000
00000000
00000000
00000000
00000000
00000000
00000000
00000000
00000000
00000000
00000000
00000000
00000000
00000000
00000000
00000000
00000000
ENDCHAR

STARTCHAR ldscan3
ENCODING 112
SWIDTH 1131 0
DWIDTH 30 0
BBX 30 25 0 -5
BITMAP
00000000
00000000
00000000
00000000
00000000
00000000
00000000
00000000
FFFFFFFC
FFFFFFFC
00000000
00000000
00000000
00000000
00000000
00000000
00000000
00000000
00000000
00000000
00000000
00000000
00000000
00000000
00000000
ENDCHAR

STARTCHAR ldhorizontal
ENCODING 113
SWIDTH 1131 0
DWIDTH 30 0
BBX 30 25 0 -5
BITMAP
00000000
00000000
00000000
00000000
00000000
00000000
00000000
00000000
00000000
00000000
00000000
00000000
FFFFFFFC
FFFFFFFC
00000000
00000000
00000000
00000000
00000000
00000000
00000000
00000000
00000000
00000000
00000000
ENDCHAR

STARTCHAR ldscan7
ENCODING 114
SWIDTH 1131 0
DWIDTH 30 0
BBX 30 25 0 -5
BITMAP
00000000
00000000
00000000
00000000
00000000
00000000
00000000
00000000
00000000
00000000
00000000
00000000
00000000
00000000
00000000
00000000
00000000
00000000
00000000
FFFFFFFC
FFFFFFFC
00000000
00000000
00000000
00000000
ENDCHAR

STARTCHAR ldscan9
ENCODING 115
SWIDTH 1131 0
DWIDTH 30 0
BBX 30 25 0 -5
BITMAP
00000000
00000000
00000000
00000000
00000000
00000000
00000000
00000000
00000000
00000000
00000000
00000000
00000000
00000000
00000000
00000000
00000000
00000000
00000000
00000000
00000000
00000000
00000000
FFFFFFFC
FFFFFFFC
ENDCHAR

STARTCHAR ldteelft
ENCODING 116
SWIDTH 1131 0
DWIDTH 30 0
BBX 30 25 0 -5
BITMAP
000F8000
000F8000
000F8000
000F8000
000F8000
000F8000
000F8000
000F8000
000F8000
000F8000
000F8000
000F8000
000FFFFC
000FFFFC
000F8000
000F8000
000F8000
000F8000
000F8000
000F8000
000F8000
000F8000
000F8000
000F8000
000F8000
ENDCHAR

STARTCHAR ldteert
ENCODING 117
SWIDTH 1131 0
DWIDTH 30 0
BBX 30 25 0 -5
BITMAP
000F8000
000F8000
000F8000
000F8000
000F8000
000F8000
000F8000
000F8000
000F8000
000F8000
000F8000
000F8000
FFFF8000
FFFF8000
000F8000
000F8000
000F8000
000F8000
000F8000
000F8000
000F8000
000F8000
000F8000
000F8000
000F8000
ENDCHAR

STARTCHAR ldteebt
ENCODING 118
SWIDTH 1131 0
DWIDTH 30 0
BBX 30 25 0 -5
BITMAP
000F8000
000F8000
000F8000
000F8000
000F8000
000F8000
000F8000
000F8000
000F8000
000F8000
000F8000
000F8000
FFFFFFFC
FFFFFFFC
00000000
00000000
00000000
00000000
00000000
00000000
00000000
00000000
00000000
00000000
00000000
ENDCHAR

STARTCHAR ldteetp
ENCODING 119
SWIDTH 1131 0
DWIDTH 30 0
BBX 30 25 0 -5
BITMAP
00000000
00000000
00000000
00000000
00000000
00000000
00000000
00000000
00000000
00000000
00000000
00000000
FFFFFFFC
FFFFFFFC
000F8000
000F8000
000F8000
000F8000
000F8000
000F8000
000F8000
000F8000
000F8000
000F8000
000F8000
ENDCHAR

STARTCHAR ldvertical
ENCODING 120
SWIDTH 1131 0
DWIDTH 30 0
BBX 30 25 0 -5
BITMAP
000F8000
000F8000
000F8000
000F8000
000F8000
000F8000
000F8000
000F8000
000F8000
000F8000
000F8000
000F8000
000F8000
000F8000
000F8000
000F8000
000F8000
000F8000
000F8000
000F8000
000F8000
000F8000
000F8000
000F8000
000F8000
ENDCHAR

STARTCHAR lessequal
ENCODING 121
SWIDTH 1131 0
DWIDTH 30 0
BBX 30 25 0 -5
BITMAP
00000000
00000000
00000000
00000000
00000000
00000000
00003FC0
0003FFC0
001FE000
01FC0000
0FE00000
0FFC0000
01FFE000
000FFFC0
00003FC0
00000000
00000000
00000000
0FFFFFC0
0FFFFFC0
00000000
00000000
00000000
00000000
00000000
ENDCHAR

STARTCHAR greaterequal
ENCODING 122
SWIDTH 1131 0
DWIDTH 30 0
BBX 30 25 0 -5
BITMAP
00000000
00000000
00000000
00000000
00000000
00000000
0FF00000
0FFF0000
001FE000
0000FE00
00001FC0
0000FFC0
001FFE00
0FFFC000
0FF00000
00000000
00000000
00000000
0FFFFFC0
0FFFFFC0
00000000
00000000
00000000
00000000
00000000
ENDCHAR

STARTCHAR pi
ENCODING 123
SWIDTH 1131 0
DWIDTH 30 0
BBX 30 25 0 -5
BITMAP
00000000
00000000
00000000
00000000
00000000
00000000
00000000
00000000
1FFFFFF0
03E03E00
03E03E00
03C03E00
07C07C00
07C07C00
07807C00
0F807800
0F80F800
0E00F800
1E00F800
1E007F00
00000000
00000000
00000000
00000000
00000000
ENDCHAR

STARTCHAR notequal
ENCODING 124
SWIDTH 1131 0
DWIDTH 30 0
BBX 30 25 0 -5
BITMAP
00000000
00000000
00000000
00000000
00000000
00000000
00000000
00001C00
00003C00
0FFFFFC0
0FFFFFC0
0003C000
0003C000
000F0000
000F0000
0FFFFFC0
0FFFFFC0
00F00000
00E00000
00000000
00000000
00000000
00000000
00000000
00000000
ENDCHAR

STARTCHAR sterling
ENCODING 125
SWIDTH 1131 0
DWIDTH 30 0
BBX 30 25 0 -5
BITMAP
00000000
00000000
00000000
00000000
00000000
001FFF80
00FF03C0
00F801C0
01F001C0
01F00000
00F80000
00FC0000
07FFFE00
003C0000
003C0000
00380000
00F00000
0FFFC1C0
0FFFE3C0
0F00FF80
00000000
00000000
00000000
00000000
00000000
ENDCHAR

STARTCHAR periodcentered
ENCODING 126
SWIDTH 1131 0
DWIDTH 30 0
BBX 30 25 0 -5
BITMAP
00000000
00000000
00000000
00000000
00000000
00000000
00000000
00000000
00000000
00000000
00000000
001FC000
003FE000
003FE000
001FC000
00000000
00000000
00000000
00000000
00000000
00000000
00000000
00000000
00000000
00000000
ENDCHAR

STARTCHAR Error
ENCODING 159
SWIDTH 1131 0
DWIDTH 30 0
BBX 30 25 0 -5
BITMAP
07FFFFC0
3FFFFFF8
7FFFFFFC
FFF03FFC
FFE01FFC
FFC00FFC
FFC00FFC
FFC00FFC
FFE00000
FFF00000
FFFF0000
7FFFC000
3FFFE000
07FFF000
00FFF000
001FF000
001FF000
001FF000
00000000
00000000
000FE000
001FF000
001FF000
001FF000
000FE000
ENDCHAR

STARTCHAR space
ENCODING 160
SWIDTH 1131 0
DWIDTH 30 0
BBX 30 25 0 -5
BITMAP
00000000
00000000
00000000
00000000
00000000
00000000
00000000
00000000
00000000
00000000
00000000
00000000
00000000
00000000
00000000
00000000
00000000
00000000
00000000
00000000
00000000
00000000
00000000
00000000
00000000
ENDCHAR

STARTCHAR ldradicalbt
ENCODING 161
SWIDTH 1131 0
DWIDTH 30 0
BBX 30 25 0 -5
BITMAP
0007C000
0007C000
0007C000
0007C000
0007C000
0007C000
0007C000
0007C000
0307C000
07C7C000
07E7C000
03E7C000
01F7C000
00FFC000
003FC000
001FC000
000FC000
00000000
00000000
00000000
00000000
00000000
00000000
00000000
00000000
ENDCHAR

STARTCHAR ldradicaltp
ENCODING 162
SWIDTH 1131 0
DWIDTH 30 0
BBX 30 25 0 -5
BITMAP
00000000
00000000
00000000
00000000
00000000
00000000
00000000
00000000
00000000
00000000
00000000
00000000
0007FFFC
0007FFFC
0007C000
0007C000
0007C000
0007C000
0007C000
0007C000
0007C000
0007C000
0007C000
0007C000
0007C000
ENDCHAR

STARTCHAR ldhorizontal
ENCODING 163
SWIDTH 1131 0
DWIDTH 30 0
BBX 30 25 0 -5
BITMAP
00000000
00000000
00000000
00000000
00000000
00000000
00000000
00000000
00000000
00000000
00000000
00000000
FFFFFFFC
FFFFFFFC
00000000
00000000
00000000
00000000
00000000
00000000
00000000
00000000
00000000
00000000
00000000
ENDCHAR

STARTCHAR ldintegraltp
ENCODING 164
SWIDTH 1131 0
DWIDTH 30 0
BBX 30 25 0 -5
BITMAP
00000000
00000000
00007FC0
0003F000
0003E000
0007E000
0007C000
0007C000
0007C000
0007C000
0007C000
0007C000
0007C000
0007C000
0007C000
0007C000
0007C000
0007C000
0007C000
0007C000
0007C000
0007C000
0007C000
0007C000
0007C000
ENDCHAR

STARTCHAR ldintegralbt
ENCODING 165
SWIDTH 1131 0
DWIDTH 30 0
BBX 30 25 0 -5
BITMAP
0007C000
0007C000
0007C000
0007C000
0007C000
0007C000
0007C000
0007C000
0007C000
0007C000
0007C000
0007C000
0007C000
0007C000
0007C000
0007C000
0007C000
0007C000
0007C000
0007C000
000FC000
000F8000
001F8000
07FC0000
00000000
ENDCHAR

STARTCHAR ldvertical
ENCODING 166
SWIDTH 1131 0
DWIDTH 30 0
BBX 30 25 0 -5
BITMAP
0007C000
0007C000
0007C000
0007C000
0007C000
0007C000
0007C000
0007C000
0007C000
0007C000
0007C000
0007C000
0007C000
0007C000
0007C000
0007C000
0007C000
0007C000
0007C000
0007C000
0007C000
0007C000
0007C000
0007C000
0007C000
ENDCHAR

STARTCHAR ldbracketlfttp
ENCODING 167
SWIDTH 1131 0
DWIDTH 30 0
BBX 30 25 0 -5
BITMAP
00000000
00000000
0007FF00
0007C000
0007C000
0007C000
0007C000
0007C000
0007C000
0007C000
0007C000
0007C000
0007C000
0007C000
0007C000
0007C000
0007C000
0007C000
0007C000
0007C000
0007C000
0007C000
0007C000
0007C000
0007C000
ENDCHAR

STARTCHAR ldbracketlftbt
ENCODING 168
SWIDTH 1131 0
DWIDTH 30 0
BBX 30 25 0 -5
BITMAP
0007C000
0007C000
0007C000
0007C000
0007C000
0007C000
0007C000
0007C000
0007C000
0007C000
0007C000
0007C000
0007C000
0007C000
0007C000
0007C000
0007C000
0007C000
0007C000
0007C000
0007C000
0007C000
0007C000
0007FF00
00000000
ENDCHAR

STARTCHAR ldbracketrttp
ENCODING 169
SWIDTH 1131 0
DWIDTH 30 0
BBX 30 25 0 -5
BITMAP
00000000
00000000
01FFC000
0007C000
0007C000
0007C000
0007C000
0007C000
0007C000
0007C000
0007C000
0007C000
0007C000
0007C000
0007C000
0007C000
0007C000
0007C000
0007C000
0007C000
0007C000
0007C000
0007C000
0007C000
0007C000
ENDCHAR

STARTCHAR ldbracketrtbt
ENCODING 170
SWIDTH 1131 0
DWIDTH 30 0
BBX 30 25 0 -5
BITMAP
0007C000
0007C000
0007C000
0007C000
0007C000
0007C000
0007C000
0007C000
0007C000
0007C000
0007C000
0007C000
0007C000
0007C000
0007C000
0007C000
0007C000
0007C000
0007C000
0007C000
0007C000
0007C000
0007C000
01FFC000
00000000
ENDCHAR

STARTCHAR ldbracelfttp
ENCODING 171
SWIDTH 1131 0
DWIDTH 30 0
BBX 30 25 0 -5
BITMAP
00000000
00000000
00003F00
0000F000
0000E000
0003E000
0003C000
0007C000
0007C000
0007C000
0007C000
0007C000
0007C000
0007C000
0007C000
0007C000
0007C000
0007C000
0007C000
0007C000
0007C000
0007C000
0007C000
0007C000
0007C000
ENDCHAR

STARTCHAR ldbracelftbt
ENCODING 172
SWIDTH 1131 0
DWIDTH 30 0
BBX 30 25 0 -5
BITMAP
0007C000
0007C000
0007C000
0007C000
0007C000
0007C000
0007C000
0007C000
0007C000
0007C000
0007C000
0007C000
0007C000
0007C000
0007C000
0007C000
0007C000
0007C000
0007C000
0003C000
0003E000
0000E000
0000F000
00003F00
00000000
ENDCHAR

STARTCHAR ldbracerttp
ENCODING 173
SWIDTH 1131 0
DWIDTH 30 0
BBX 30 25 0 -5
BITMAP
00000000
00000000
03F00000
003C0000
001F0000
000F0000
000F8000
00078000
0007C000
0007C000
0007C000
0007C000
0007C000
0007C000
0007C000
0007C000
0007C000
0007C000
0007C000
0007C000
0007C000
0007C000
0007C000
0007C000
0007C000
ENDCHAR

STARTCHAR ldbracertbt
ENCODING 174
SWIDTH 1131 0
DWIDTH 30 0
BBX 30 25 0 -5
BITMAP
0007C000
0007C000
0007C000
0007C000
0007C000
0007C000
0007C000
0007C000
0007C000
0007C000
0007C000
0007C000
0007C000
0007C000
0007C000
0007C000
0007C000
0007C000
0007C000
000F8000
000F8000
001F0000
003C0000
03F00000
00000000
ENDCHAR

STARTCHAR ldbracelftmid
ENCODING 175
SWIDTH 1131 0
DWIDTH 30 0
BBX 30 25 0 -5
BITMAP
0007C000
0007C000
0007C000
0007C000
0007C000
0007C000
0007C000
0007C000
0007C000
0007C000
00078000
000F8000
001C0000
01F00000
001C0000
001F8000
000F8000
0007C000
0007C000
0007C000
0007C000
0007C000
0007C000
0007C000
0007C000
ENDCHAR

STARTCHAR ldbracertmid
ENCODING 176
SWIDTH 1131 0
DWIDTH 30 0
BBX 30 25 0 -5
BITMAP
0007C000
0007C000
0007C000
0007C000
0007C000
0007C000
0007C000
0007C000
0007C000
0007C000
0003C000
0003E000
00007000
00001F00
00007000
0003F000
0003E000
0007C000
0007C000
0007C000
0007C000
0007C000
0007C000
0007C000
0007C000
ENDCHAR

STARTCHAR ldsigmalfttp
ENCODING 177
SWIDTH 1131 0
DWIDTH 30 0
BBX 30 25 0 -5
BITMAP
00000000
00000000
00000000
00000000
00000000
00000000
00000000
00000000
00000000
00000000
00000000
00000000
0003FFFC
0003FFFC
0000F000
00007C00
00003E00
00001F00
00000F80
000003C0
000001F0
000000F8
0000007C
0000003C
0000000C
ENDCHAR

STARTCHAR ldsigmalftbt
ENCODING 178
SWIDTH 1131 0
DWIDTH 30 0
BBX 30 25 0 -5
BITMAP
0000001C
0000003C
00000078
000001F0
000003E0
000007C0
00000F80
00001E00
00003C00
00007800
0000F000
0001F000
0003FFFC
0003FFFC
00000000
00000000
00000000
00000000
00000000
00000000
00000000
00000000
00000000
00000000
00000000
ENDCHAR

STARTCHAR ldbackslash
ENCODING 179
SWIDTH 1131 0
DWIDTH 30 0
BBX 30 25 0 -5
BITMAP
F0000000
F8000000
7C000000
3E000000
0F000000
07C00000
03E00000
01F00000
00F80000
003C0000
001F0000
000F8000
0007C000
0003E000
0000F000
00007C00
00003E00
00001F00
00000F80
000003C0
000001F0
000000F8
0000007C
0000003C
0000000C
ENDCHAR

STARTCHAR ldslash
ENCODING 180
SWIDTH 1131 0
DWIDTH 30 0
BBX 30 25 0 -5
BITMAP
0000003C
0000007C
000000F8
000001F0
000003C0
00000F80
00001F00
00003E00
00007C00
0000F000
0003E000
0007C000
000F8000
001F0000
003C0000
00F80000
01F00000
03E00000
07C00000
0F000000
3E000000
7C000000
F8000000
F0000000
C0000000
ENDCHAR

STARTCHAR ldsigmarttp
ENCODING 181
SWIDTH 1131 0
DWIDTH 30 0
BBX 30 25 0 -5
BITMAP
00000000
00000000
00000000
00000000
00000000
00000000
00000000
00000000
00000000
00000000
00000000
00000000
FFFFFFFC
FFFFFFFC
0000007C
0000007C
0000007C
0000007C
0000007C
00000000
00000000
00000000
00000000
00000000
00000000
ENDCHAR

STARTCHAR ldsigmartbt
ENCODING 182
SWIDTH 1131 0
DWIDTH 30 0
BBX 30 25 0 -5
BITMAP
00000000
00000000
00000000
00000000
00000000
00000000
00000000
00000000
0000007C
0000007C
0000007C
0000007C
FFFFFFFC
FFFFFFFC
00000000
00000000
00000000
00000000
00000000
00000000
00000000
00000000
00000000
00000000
00000000
ENDCHAR

STARTCHAR ldsigmamid
ENCODING 183
SWIDTH 1131 0
DWIDTH 30 0
BBX 30 25 0 -5
BITMAP
F0000000
F8000000
7C000000
3E000000
0F000000
07C00000
03E00000
01F00000
00F80000
003C0000
001E0000
000F0000
000F0000
001E0000
003C0000
00F80000
01F00000
03E00000
07C00000
0F000000
3E000000
7C000000
F8000000
F0000000
C0000000
ENDCHAR

STARTCHAR lessequal
ENCODING 188
SWIDTH 1131 0
DWIDTH 30 0
BBX 30 25 0 -5
BITMAP
00000000
00000000
00000000
00000000
00000000
00000000
00003FC0
0003FFC0
001FE000
01FC0000
0FE00000
0FFC0000
01FFE000
000FFFC0
00003FC0
00000000
00000000
00000000
0FFFFFC0
0FFFFFC0
00000000
00000000
00000000
00000000
00000000
ENDCHAR

STARTCHAR notequal
ENCODING 189
SWIDTH 1131 0
DWIDTH 30 0
BBX 30 25 0 -5
BITMAP
00000000
00000000
00000000
00000000
00000000
00000000
00000000
00001C00
00003C00
0FFFFFC0
0FFFFFC0
0003C000
0003C000
000F0000
000F0000
0FFFFFC0
0FFFFFC0
00F00000
00E00000
00000000
00000000
00000000
00000000
00000000
00000000
ENDCHAR

STARTCHAR greaterequal
ENCODING 190
SWIDTH 1131 0
DWIDTH 30 0
BBX 30 25 0 -5
BITMAP
00000000
00000000
00000000
00000000
00000000
00000000
0FF00000
0FFF0000
001FE000
0000FE00
00001FC0
0000FFC0
001FFE00
0FFFC000
0FF00000
00000000
00000000
00000000
0FFFFFC0
0FFFFFC0
00000000
00000000
00000000
00000000
00000000
ENDCHAR

STARTCHAR integral
ENCODING 191
SWIDTH 1131 0
DWIDTH 30 0
BBX 30 25 0 -5
BITMAP
00000000
00007F80
0003E1C0
0003C0F0
0007C0F0
0007C0F0
0007C000
0007C000
0007C000
0007C000
0007C000
0007C000
0007C000
0007C000
0007C000
0007C000
0007C000
0007C000
0007C000
3C07C000
3C07C000
3C078000
0E0F8000
03FC0000
00000000
ENDCHAR

STARTCHAR therefore
ENCODING 192
SWIDTH 1131 0
DWIDTH 30 0
BBX 30 25 0 -5
BITMAP
00000000
00000000
00000000
00000000
00000000
00000000
00000000
00000000
001FE000
003FF000
003FF000
001FE000
00000000
00000000
00000000
00000000
3FE01FF0
7FF03FF8
7FF03FF8
3FE01FF0
00000000
00000000
00000000
00000000
00000000
ENDCHAR

STARTCHAR proportional
ENCODING 193
SWIDTH 1131 0
DWIDTH 30 0
BBX 30 25 0 -5
BITMAP
00000000
00000000
00000000
00000000
00000000
00000000
00000000
00000000
07F81FF8
3FFF7FF8
7E1FFC00
7C0FF000
7C0FF000
7C0FF000
7E1FFC00
3FFF7FF8
07F80FF8
00000000
00000000
00000000
00000000
00000000
00000000
00000000
00000000
ENDCHAR

STARTCHAR infinity
ENCODING 194
SWIDTH 1131 0
DWIDTH 30 0
BBX 30 25 0 -5
BITMAP
00000000
00000000
00000000
00000000
00000000
00000000
00000000
00000000
07F03F00
3FFCFFC0
7C3FE1F0
781FC0F0
781FC0F0
781FC0F0
7C3FE1F0
3FFCFFC0
07F03F00
00000000
00000000
00000000
00000000
00000000
00000000
00000000
00000000
ENDCHAR

STARTCHAR divide
ENCODING 195
SWIDTH 1131 0
DWIDTH 30 0
BBX 30 25 0 -5
BITMAP
00000000
00000000
00000000
00000000
00000000
00000000
00000000
000FC000
000FC000
000FC000
00000000
00000000
3FFFFFF0
3FFFFFF0
00000000
00000000
000FC000
000FC000
000FC000
00000000
00000000
00000000
00000000
00000000
00000000
ENDCHAR

STARTCHAR Delta
ENCODING 196
SWIDTH 1131 0
DWIDTH 30 0
BBX 30 25 0 -5
BITMAP
00000000
00000000
00000000
00000000
00000000
00038000
0007C000
000FE000
001FF000
003FFC00
00FF7C00
01FC3E00
03F81F00
07F00F80
0FE00FC0
0FC003C0
3F0001F0
7F0000F8
7E0000F8
7FFFFFF8
00000000
00000000
00000000
00000000
00000000
ENDCHAR

STARTCHAR gradient
ENCODING 197
SWIDTH 1131 0
DWIDTH 30 0
BBX 30 25 0 -5
BITMAP
00000000
00000000
00000000
00000000
00000000
7FFFFFF8
7FFFFFF8
7F0000F8
3F0001F0
0FC003C0
0FE00FC0
07F00F80
03F81F00
01FC3E00
00FF7C00
003FFC00
001FF000
000FE000
0007C000
00038000
00000000
00000000
00000000
00000000
00000000
ENDCHAR

STARTCHAR Phi
ENCODING 198
SWIDTH 1131 0
DWIDTH 30 0
BBX 30 25 0 -5
BITMAP
00000000
00000000
00000000
00000000
00000000
01FFFC00
000F8000
000F8000
03FFFE00
0F0F8F80
3E0F83C0
3E0F83C0
3E0F83C0
3E0F83C0
3E0F83C0
0F0F8F80
03FFFE00
000F8000
000F8000
01FFFC00
00000000
00000000
00000000
00000000
00000000
ENDCHAR

STARTCHAR Gamma
ENCODING 199
SWIDTH 1131 0
DWIDTH 30 0
BBX 30 25 0 -5
BITMAP
00000000
00000000
00000000
00000000
00000000
0FFFFFF0
003C01F0
003C01F0
003C01F0
003C01F0
003C0000
003C0000
003C0000
003C0000
003C0000
003C0000
003C0000
003C0000
003C0000
0FFFFC00
00000000
00000000
00000000
00000000
00000000
ENDCHAR

STARTCHAR similar
ENCODING 200
SWIDTH 1131 0
DWIDTH 30 0
BBX 30 25 0 -5
BITMAP
00000000
00000000
00000000
00000000
00000000
00000000
00000000
00000000
00000000
00000000
00F801C0
03FF01C0
07FFC3C0
0F03FF80
0E00FF00
0E003C00
00000000
00000000
00000000
00000000
00000000
00000000
00000000
00000000
00000000
ENDCHAR

STARTCHAR approxequal
ENCODING 201
SWIDTH 1131 0
DWIDTH 30 0
BBX 30 25 0 -5
BITMAP
00000000
00000000
00000000
00000000
00000000
00000000
00000000
00000000
00F801C0
03FF01C0
07FFC3C0
0F07FF80
0E00FF00
0E003C00
00000000
00000000
00000000
0FFFFFC0
0FFFFFC0
00000000
00000000
00000000
00000000
00000000
00000000
ENDCHAR

STARTCHAR Theta
ENCODING 202
SWIDTH 1131 0
DWIDTH 30 0
BBX 30 25 0 -5
BITMAP
00000000
00000000
00000000
00000000
00000000
01FFFC00
07C01F00
0F000F80
0F000F80
3E0003C0
3E3063C0
3E3063C0
3E3FE3C0
3E3063C0
3E3063C0
3E0003C0
0F000F80
0F000F80
07C01F00
01FFFC00
00000000
00000000
00000000
00000000
00000000
ENDCHAR

STARTCHAR multiply
ENCODING 203
SWIDTH 1131 0
DWIDTH 30 0
BBX 30 25 0 -5
BITMAP
00000000
00000000
00000000
00000000
00000000
00000000
00000000
00000000
03C00F00
07E01F80
03F87F00
00FCFC00
001FE000
001FE000
00FFFC00
01FCFE00
07F03F80
07C00F80
03000300
00000000
00000000
00000000
00000000
00000000
00000000
ENDCHAR

STARTCHAR Lambda
ENCODING 204
SWIDTH 1131 0
DWIDTH 30 0
BBX 30 25 0 -5
BITMAP
00000000
00000000
00000000
00000000
00000000
00038000
0007C000
000FE000
001FE000
003FF000
00FF7C00
01FC3E00
01F81F00
03F00F00
07E00380
0FC003C0
3FC001F0
3F0000F0
7E0000F8
7FC003F8
00000000
00000000
00000000
00000000
00000000
ENDCHAR

STARTCHAR arrowdblboth
ENCODING 205
SWIDTH 1131 0
DWIDTH 30 0
BBX 30 25 0 -5
BITMAP
00000000
00000000
00000000
00000000
00000000
00000000
00303000
00303000
01E01E00
07FFFF80
0FFFFFC0
3E0001F0
7C0000F8
3E0001F0
0FFFFFC0
07FFFF80
01E01E00
00303000
00303000
00000000
00000000
00000000
00000000
00000000
00000000
ENDCHAR

STARTCHAR arrowdblright
ENCODING 206
SWIDTH 1131 0
DWIDTH 30 0
BBX 30 25 0 -5
BITMAP
00000000
00000000
00000000
00000000
00000000
00000000
00003000
00003000
00001E00
3FFFFF80
3FFFFFC0
000001F0
000000F8
000001F0
3FFFFFC0
3FFFFF80
00001E00
00003000
00003000
00000000
00000000
00000000
00000000
00000000
00000000
ENDCHAR

STARTCHAR equivalence
ENCODING 207
SWIDTH 1131 0
DWIDTH 30 0
BBX 30 25 0 -5
BITMAP
00000000
00000000
00000000
00000000
00000000
00000000
00000000
0FFFFFC0
0FFFFFC0
00000000
00000000
00000000
0FFFFFC0
0FFFFFC0
00000000
00000000
00000000
0FFFFFC0
0FFFFFC0
00000000
00000000
00000000
00000000
00000000
00000000
ENDCHAR

STARTCHAR Pi
ENCODING 208
SWIDTH 1131 0
DWIDTH 30 0
BBX 30 25 0 -5
BITMAP
00000000
00000000
00000000
00000000
00000000
3FFFFFF0
03E01F00
03E01F00
03E01F00
03E01F00
03E01F00
03E01F00
03E01F00
03E01F00
03E01F00
03E01F00
03E01F00
03E01F00
03E01F00
3FFC7FF0
00000000
00000000
00000000
00000000
00000000
ENDCHAR

STARTCHAR Psi
ENCODING 209
SWIDTH 1131 0
DWIDTH 30 0
BBX 30 25 0 -5
BITMAP
00000000
00000000
00000000
00000000
00000000
01FFFC00
000F8000
000F8000
3E0F83C0
3E0F83C0
3E0F83C0
3E0F83C0
3E0F83C0
0F0F8F80
03FFFE00
000F8000
000F8000
000F8000
000F8000
01FFFC00
00000000
00000000
00000000
00000000
00000000
ENDCHAR

STARTCHAR Sigma
ENCODING 211
SWIDTH 1131 0
DWIDTH 30 0
BBX 30 25 0 -5
BITMAP
00000000
00000000
00000000
00000000
00000000
3FFFFFC0
07E003C0
03F003C0
00FC03C0
003F0000
000FC000
0007E000
0007E000
000FC000
003F8000
00FF03C0
01F803C0
07F003C0
0FE003C0
3FFFFFC0
00000000
00000000
00000000
00000000
00000000
ENDCHAR

STARTCHAR radical
ENCODING 214
SWIDTH 1131 0
DWIDTH 30 0
BBX 30 25 0 -5
BITMAP
00000000
00000000
00000000
0000003C
0000007C
000000FC
000000F0
000001C0
000003C0
7E000380
3E000F00
0F001F00
0F001E00
0F003C00
07C07C00
07C07000
03C0E000
03E3E000
03E3C000
01FF8000
01FF8000
00FF0000
00FF0000
00000000
00000000
ENDCHAR

STARTCHAR Omega
ENCODING 215
SWIDTH 1131 0
DWIDTH 30 0
BBX 30 25 0 -5
BITMAP
00000000
00000000
00000000
00000000
00000000
01FFFE00
07E01F80
0FC00FC0
0F0003C0
3F0003F0
3F0003F0
3F0003F0
0F0003C0
0FC00FC0
07E01F80
01F03E00
00F03C00
3CF03CF0
3CF03CF0
3FF03FF0
00000000
00000000
00000000
00000000
00000000
ENDCHAR

STARTCHAR Xi
ENCODING 216
SWIDTH 1131 0
DWIDTH 30 0
BBX 30 25 0 -5
BITMAP
00000000
00000000
00000000
00000000
00000000
3FFFFFC0
3E0003C0
3E0003C0
3E0003C0
00000000
03C01E00
03C01E00
03FFFE00
03C01E00
03C01E00
00000000
3E0003C0
3E0003C0
3E0003C0
3FFFFFC0
00000000
00000000
00000000
00000000
00000000
ENDCHAR

STARTCHAR Upsilon1
ENCODING 217
SWIDTH 1131 0
DWIDTH 30 0
BBX 30 25 0 -5
BITMAP
00000000
00000000
00000000
00000000
00000000
7E0003F0
0F000F80
0FC01F80
07E03F00
03F07E00
01F8FC00
00FFF000
003FE000
001FC000
000F8000
000F8000
000F8000
000F8000
000F8000
01FFFC00
00000000
00000000
00000000
00000000
00000000
ENDCHAR

STARTCHAR propersubset
ENCODING 218
SWIDTH 1131 0
DWIDTH 30 0
BBX 30 25 0 -5
BITMAP
00000000
00000000
00000000
00000000
00000000
00FFFFC0
03FFFFC0
07FFFFC0
0F000000
0E000000
3E000000
3E000000
3E000000
3E000000
3E000000
0E000000
0F000000
07FFFFC0
03FFFFC0
00FFFFC0
00000000
00000000
00000000
00000000
00000000
ENDCHAR

STARTCHAR propersuperset
ENCODING 219
SWIDTH 1131 0
DWIDTH 30 0
BBX 30 25 0 -5
BITMAP
00000000
00000000
00000000
00000000
00000000
3FFFF000
3FFFFE00
3FFFFF00
00000F80
00000380
000003C0
000003C0
000003C0
000003C0
000003C0
00000380
00000F80
3FFFFF00
3FFFFE00
3FFFF000
00000000
00000000
00000000
00000000
00000000
ENDCHAR

STARTCHAR intersection
ENCODING 220
SWIDTH 1131 0
DWIDTH 30 0
BBX 30 25 0 -5
BITMAP
00000000
00000000
00000000
00000000
00000000
00FFF000
07FFFF00
0FFFFF80
0F000F80
3E0003C0
3E0003C0
3E0003C0
3E0003C0
3E0003C0
3E0003C0
3E0003C0
3E0003C0
3E0003C0
3E0003C0
3E0003C0
00000000
00000000
00000000
00000000
00000000
ENDCHAR

STARTCHAR union
ENCODING 221
SWIDTH 1131 0
DWIDTH 30 0
BBX 30 25 0 -5
BITMAP
00000000
00000000
00000000
00000000
00000000
3E0003C0
3E0003C0
3E0003C0
3E0003C0
3E0003C0
3E0003C0
3E0003C0
3E0003C0
3E0003C0
3E0003C0
3E0003C0
0F000F80
0FFFFF80
07FFFF00
00FFF000
00000000
00000000
00000000
00000000
00000000
ENDCHAR

STARTCHAR logicaland
ENCODING 222
SWIDTH 1131 0
DWIDTH 30 0
BBX 30 25 0 -5
BITMAP
00000000
00000000
00000000
00000000
00000000
00000000
00000000
00000000
00038000
0007C000
000FE000
001FF000
003FFC00
00FC7E00
01F83E00
03F01F00
03E00F80
07C00FC0
0FC003C0
3F0001F0
00000000
00000000
00000000
00000000
00000000
ENDCHAR

STARTCHAR logicalor
ENCODING 223
SWIDTH 1131 0
DWIDTH 30 0
BBX 30 25 0 -5
BITMAP
00000000
00000000
00000000
00000000
00000000
00000000
00000000
00000000
3F0001F0
0FC003C0
07C00FC0
03E00F80
03F01F00
01F83E00
00FC7E00
003FFC00
001FF000
000FE000
0007C000
00038000
00000000
00000000
00000000
00000000
00000000
ENDCHAR

STARTCHAR logicalnot
ENCODING 224
SWIDTH 1131 0
DWIDTH 30 0
BBX 30 25 0 -5
BITMAP
00000000
00000000
00000000
00000000
00000000
00000000
00000000
00000000
00000000
00000000
00000000
0FFFFFC0
0FFFFFC0
000003C0
000003C0
000003C0
000003C0
00000000
00000000
00000000
00000000
00000000
00000000
00000000
00000000
ENDCHAR

STARTCHAR alpha
ENCODING 225
SWIDTH 1131 0
DWIDTH 30 0
BBX 30 25 0 -5
BITMAP
00000000
00000000
00000000
00000000
00000000
00000000
00000000
00000000
00FFC0F8
03E071F0
0F001FC0
0F000F80
3E000F80
3E000F00
3E001F00
3E001F00
3F003F00
0F006F08
0FC3CF88
03FF03F0
00000000
00000000
00000000
00000000
00000000
ENDCHAR

STARTCHAR beta
ENCODING 226
SWIDTH 1131 0
DWIDTH 30 0
BBX 30 25 0 -5
BITMAP
00000000
00000000
00000000
0007FFC0
001F81F0
003C00F8
00FC00F8
00F800F8
01F001F8
01F003F0
03E0FF80
03E00F80
07E001F0
07C001F8
07C000F8
0FC000F8
0FC000F8
0FE001F0
3E380FF0
3E1FFF80
3E000000
7C000000
7C000000
7C000000
00000000
ENDCHAR

STARTCHAR chi
ENCODING 227
SWIDTH 1131 0
DWIDTH 30 0
BBX 30 25 0 -5
BITMAP
00000000
00000000
00000000
00000000
00000000
00000000
00000000
00000000
03F800F8
00FC01F0
003C03C0
003F0F80
001F1E00
000FBC00
000FF000
0007E000
0007E000
000FF000
001FF000
00387C00
01F03E00
03E03E00
07C01F00
0F001F00
7F000FC0
ENDCHAR

STARTCHAR delta
ENCODING 228
SWIDTH 1131 0
DWIDTH 30 0
BBX 30 25 0 -5
BITMAP
00000000
00000000
00000000
0007FF80
001F8000
003C0000
003C0000
003F0000
001FC000
000FFC00
00FFFE00
03E03F80
07C01F80
0FC00FC0
0FC00FC0
0FC00FC0
0FC00FC0
07C00F80
03E01F80
00FFFC00
00000000
00000000
00000000
00000000
00000000
ENDCHAR

STARTCHAR epsilon
ENCODING 229
SWIDTH 1131 0
DWIDTH 30 0
BBX 30 25 0 -5
BITMAP
00000000
00000000
00000000
00000000
00000000
00000000
00000000
00000000
003FFFC0
01F80000
03E00000
07E00000
07C00000
0FFFFF00
0FC00000
0FC00000
07C00000
07E00000
03F00000
00FFFFC0
00000000
00000000
00000000
00000000
00000000
ENDCHAR

STARTCHAR phi
ENCODING 230
SWIDTH 1131 0
DWIDTH 30 0
BBX 30 25 0 -5
BITMAP
00000000
00000000
00000000
00007000
00007000
00007000
0000E000
0000E000
003FFF80
03F0E3F0
0FC3C1F0
3F03C1F8
3F07C1F8
7E0781F8
7E0781F8
7E0783F0
7E0F83F0
3E0F0FC0
0F0F3F80
03FFFC00
001C0000
001C0000
003C0000
00380000
00380000
ENDCHAR

STARTCHAR gamma
ENCODING 231
SWIDTH 1131 0
DWIDTH 30 0
BBX 30 25 0 -5
BITMAP
00000000
00000000
00000000
00000000
00000000
00000000
00000000
00000000
3F0001F8
0FC003F0
07C00FC0
03E01F80
01F03F00
00F07E00
00F87C00
003CF000
003FE000
001FC000
001F8000
003F0000
00FC0000
01F80000
03F00000
07E00000
0FC00000
ENDCHAR

STARTCHAR eta
ENCODING 232
SWIDTH 1131 0
DWIDTH 30 0
BBX 30 25 0 -5
BITMAP
00000000
00000000
00000000
00000000
00000000
00000000
00000000
00000000
0FE3FFC0
00FF83F0
01F801F0
01F001F0
01F001F0
03E003C0
03E003C0
07C003C0
07C00F80
0FC00F80
0F001F80
3F001F00
00001F00
00003F00
00003E00
00007E00
00007E00
ENDCHAR

STARTCHAR iota
ENCODING 233
SWIDTH 1131 0
DWIDTH 30 0
BBX 30 25 0 -5
BITMAP
00000000
00000000
00000000
00000000
00000000
00000000
00000000
00000000
03FF8000
001F8000
001F8000
001F0000
003F0000
003F0000
003C0000
00FC0000
00FC0000
00FC1F80
003F1F80
000FFF00
00000000
00000000
00000000
00000000
00000000
ENDCHAR

STARTCHAR theta
ENCODING 234
SWIDTH 1131 0
DWIDTH 30 0
BBX 30 25 0 -5
BITMAP
00000000
00000000
00000000
001FFC00
00F80F00
01F00380
03E00380
03E003C0
07C003C0
07C003C0
0FC003C0
0FFFFFC0
0F000FC0
0F000FC0
0F000F80
0F001F80
07001F00
07003E00
03C07C00
00FFE000
00000000
00000000
00000000
00000000
00000000
ENDCHAR

STARTCHAR kappa
ENCODING 235
SWIDTH 1131 0
DWIDTH 30 0
BBX 30 25 0 -5
BITMAP
00000000
00000000
00000000
00000000
00000000
00000000
00000000
00000000
3FF003F0
03F01F80
03F07E00
07E07C00
07E3E000
07FFC000
07C7E000
0FC3F000
0F00FC00
0F007E00
3F007F00
3F003FC0
00000000
00000000
00000000
00000000
00000000
ENDCHAR

STARTCHAR lambda
ENCODING 236
SWIDTH 1131 0
DWIDTH 30 0
BBX 30 25 0 -5
BITMAP
00000000
00000000
00000000
003F8000
000F8000
000FC000
0007C000
0007E000
0007E000
000FF000
000FFC00
001F7C00
003C7E00
00F83E00
01F03F00
03E01F00
07C01F80
0F000FC0
3E000FC0
7E000FF8
00000000
00000000
00000000
00000000
00000000
ENDCHAR

STARTCHAR nu
ENCODING 238
SWIDTH 1131 0
DWIDTH 30 0
BBX 30 25 0 -5
BITMAP
00000000
00000000
00000000
00000000
00000000
00000000
00000000
00000000
0FF801F0
00F801F0
00F801F0
00F803F0
00F803C0
00F80F80
00F80F80
00F81F00
00F83E00
00F8F000
00FFE000
00FF8000
00000000
00000000
00000000
00000000
00000000
ENDCHAR

STARTCHAR partialdiff
ENCODING 239
SWIDTH 1131 0
DWIDTH 30 0
BBX 30 25 0 -5
BITMAP
00000000
00000000
00000000
00000000
00000000
00FFF000
00007E00
00001F00
00000F80
00000F80
00FFEFC0
03E03FC0
07E01FC0
0FC00FC0
0FC00FC0
0FC00FC0
0FC00FC0
07E00F80
03E01F80
00FFFE00
00000000
00000000
00000000
00000000
00000000
ENDCHAR

STARTCHAR pi
ENCODING 240
SWIDTH 1131 0
DWIDTH 30 0
BBX 30 25 0 -5
BITMAP
00000000
00000000
00000000
00000000
00000000
00000000
00000000
00000000
1FFFFFF0
03E03E00
03E03E00
03C03E00
07C07C00
07C07C00
07807C00
0F807800
0F80F800
0E00F800
1E00F800
1E007F00
00000000
00000000
00000000
00000000
00000000
ENDCHAR

STARTCHAR psi
ENCODING 241
SWIDTH 1131 0
DWIDTH 30 0
BBX 30 25 0 -5
BITMAP
00000000
00000000
00000000
00000000
0000E000
0000E000
0000E000
0000E000
7FC3C0F8
0FC3C0F8
0F03C0F8
0F03C0F8
3F03C0F8
3E0781F0
3E0781F0
7E0781F0
7E0783C0
7E0F0380
3F0F1F80
07FFFE00
000F0000
001C0000
001C0000
001C0000
001C0000
ENDCHAR

STARTCHAR rho
ENCODING 242
SWIDTH 1131 0
DWIDTH 30 0
BBX 30 25 0 -5
BITMAP
00000000
00000000
00000000
00000000
00000000
00000000
00000000
00000000
003FFF00
01F80FC0
03E001F0
03E001F0
07E000F8
07C000F8
07C000F8
0FC001F8
0FC001F0
0FE003C0
0FF81F80
3F0FFE00
3F000000
3E000000
3E000000
7E000000
7E000000
ENDCHAR

STARTCHAR sigma
ENCODING 243
SWIDTH 1131 0
DWIDTH 30 0
BBX 30 25 0 -5
BITMAP
00000000
00000000
00000000
00000000
00000000
00000000
00000000
00000000
00FFFFF8
07E01F00
3F000F80
3F000F80
7E000FC0
7E000FC0
7E000FC0
7E000F80
7E001F80
3E001F00
0F007C00
03FFE000
00000000
00000000
00000000
00000000
00000000
ENDCHAR

STARTCHAR tau
ENCODING 244
SWIDTH 1131 0
DWIDTH 30 0
BBX 30 25 0 -5
BITMAP
00000000
00000000
00000000
00000000
00000000
00000000
00000000
00000000
3FFFFFF0
001F8000
001F8000
001F0000
003F0000
003F0000
003F0000
00FC0000
00FC0000
00FC01F0
003F01F0
000FFF80
00000000
00000000
00000000
00000000
00000000
ENDCHAR

STARTCHAR florin
ENCODING 246
SWIDTH 1131 0
DWIDTH 30 0
BBX 30 25 0 -5
BITMAP
00000000
00000000
00000000
00000000
00000000
00000FF0
00003E00
00007C00
00007C00
0000F000
0000F000
01FFFFC0
0003E000
0007C000
0007C000
0007C000
000F8000
000F8000
000F8000
001F0000
001F0000
003C0000
00FC0000
3FE00000
00000000
ENDCHAR

STARTCHAR omega
ENCODING 247
SWIDTH 1131 0
DWIDTH 30 0
BBX 30 25 0 -5
BITMAP
00000000
00000000
00000000
00000000
00000000
00000000
00000000
00000000
07C000F8
07C000F8
0F00C0F8
0F00C0F8
0F00C0F8
3E03C0F8
3E0380F0
3E0381F0
3E0781F0
3E0781C0
0E1FC3C0
07F07F80
00000000
00000000
00000000
00000000
00000000
ENDCHAR

STARTCHAR xi
ENCODING 248
SWIDTH 1131 0
DWIDTH 30 0
BBX 30 25 0 -5
BITMAP
00000000
00000000
00000000
03FFFFF0
000FC000
003F0000
003F0000
00FC0000
00FC0000
00FC0000
003FFE00
003F0000
03F00000
0FC00000
3F000000
3F000000
3F000000
3F000000
0FC00000
03FFFF00
00003F80
00001F80
00001F80
00003F00
0003F000
ENDCHAR

STARTCHAR upsilon
ENCODING 249
SWIDTH 1131 0
DWIDTH 30 0
BBX 30 25 0 -5
BITMAP
00000000
00000000
00000000
00000000
00000000
00000000
00000000
00000000
03F001F0
07E001F0
07C003F0
0FC003F0
0FC003C0
0F000FC0
0F000FC0
0F001F80
0F001F80
0F003F00
07C0FE00
03FFF000
00000000
00000000
00000000
00000000
00000000
ENDCHAR

STARTCHAR zeta
ENCODING 250
SWIDTH 1131 0
DWIDTH 30 0
BBX 30 25 0 -5
BITMAP
00000000
00000000
00000000
01FFFFF0
00003F00
00007E00
0003F000
000FC000
001F0000
00FC0000
03F00000
07E00000
0FC00000
3FC00000
3F000000
3F000000
3F000000
3F000000
0FC00000
03FFFFC0
000003F0
000001F0
000001F0
000003C0
00003F00
ENDCHAR

STARTCHAR arrowleft
ENCODING 251
SWIDTH 1131 0
DWIDTH 30 0
BBX 30 25 0 -5
BITMAP
00000000
00000000
00000000
00000000
00000000
00000000
00000000
00000000
003F0000
01F00000
0FC00000
0FC00000
7FFFFFF8
7FFFFFF8
0FC00000
0FC00000
01F00000
003F0000
00000000
00000000
00000000
00000000
00000000
00000000
00000000
ENDCHAR

STARTCHAR arrowup
ENCODING 252
SWIDTH 1131 0
DWIDTH 30 0
BBX 30 25 0 -5
BITMAP
00000000
00000000
00000000
00040000
000F0000
003FC000
003FC000
01EF7000
03CF3C00
020F0C00
000F0000
000F0000
000F0000
000F0000
000F0000
000F0000
000F0000
000F0000
000F0000
000F0000
000F0000
000F0000
00000000
00000000
00000000
ENDCHAR

STARTCHAR arrowright
ENCODING 253
SWIDTH 1131 0
DWIDTH 30 0
BBX 30 25 0 -5
BITMAP
00000000
00000000
00000000
00000000
00000000
00000000
00000000
00000000
001F8000
00F80000
07E00000
07E00000
7FFFFFF0
7FFFFFF0
07E00000
07E00000
00F80000
001F8000
00000000
00000000
00000000
00000000
00000000
00000000
00000000
ENDCHAR

STARTCHAR arrowdown
ENCODING 254
SWIDTH 1131 0
DWIDTH 30 0
BBX 30 25 0 -5
BITMAP
00000000
00000000
00000000
00078000
00078000
00078000
00078000
00078000
00078000
00078000
00078000
00078000
00078000
00078000
00078000
01078200
01E79E00
00F7BC00
001FE000
001FE000
00078000
00030000
00000000
00000000
00000000
ENDCHAR
ENDFONT
